<svg xmlns="http://www.w3.org/2000/svg" viewBox="0 0 449 195" width="449" height="195">
	<defs>
		<clipPath clipPathUnits="userSpaceOnUse" id="cp1">
			<path d="M0 0L449 0L449 195L0 195Z" />
		</clipPath>
	</defs>
	<style>
		tspan { white-space:pre }
		.shp0 { fill: #ffffff } 
	</style>
	<g id="Page 1" clip-path="url(#cp1)">
		<path id="Path 1" class="shp0" d="M97.68 195C43.82 195 0 151.18 0 97.32C0 43.46 43.82 -0.36 97.68 -0.36C109 -0.36 120.1 1.56 130.67 5.35C133.27 6.28 134.62 9.15 133.69 11.75C132.76 14.34 129.89 15.69 127.29 14.76C117.81 11.36 107.85 9.64 97.68 9.64C49.33 9.64 10 48.97 10 97.32C10 145.67 49.33 185 97.68 185C146.03 185 185.36 145.67 185.36 97.32C185.36 73.92 176.25 51.91 159.72 35.36C157.77 33.4 157.77 30.24 159.72 28.29C161.67 26.33 164.84 26.34 166.79 28.29C185.22 46.73 195.36 71.25 195.36 97.32C195.36 151.18 151.54 195 97.68 195ZM351.69 195C297.83 195 254.01 151.18 254.01 97.32C254.01 43.46 297.83 -0.36 351.69 -0.36C377.79 -0.36 402.32 9.8 420.76 28.25C422.72 30.2 422.72 33.37 420.76 35.32C418.81 37.27 415.65 37.27 413.69 35.32C397.13 18.76 375.11 9.64 351.69 9.64C303.35 9.64 264.01 48.97 264.01 97.32C264.01 145.67 303.35 185 351.69 185C400.04 185 439.37 145.67 439.37 97.32C439.37 85.16 436.94 73.4 432.12 62.35C431.02 59.82 432.18 56.87 434.71 55.77C437.24 54.66 440.19 55.82 441.29 58.36C446.66 70.67 449.37 83.78 449.37 97.32C449.37 151.18 405.56 195 351.69 195ZM275.17 44.78C273.84 44.78 272.5 44.25 271.52 43.19C254.32 24.74 231.71 22.69 219.75 23.1C201.62 23.73 184.48 30.84 176.08 41.21C174.34 43.36 171.19 43.69 169.05 41.95C166.9 40.21 166.57 37.06 168.31 34.92C178.61 22.2 198.19 13.85 219.4 13.11C242.65 12.29 264.29 20.78 278.83 36.37C280.71 38.39 280.6 41.55 278.58 43.44C277.62 44.34 276.39 44.78 275.17 44.78ZM59.07 136.65C57.23 136.65 55.47 135.63 54.59 133.88C53.43 131.55 54.25 128.75 56.42 127.4C60.77 123.91 97.99 83.54 120.59 58.73C122.45 56.68 125.61 56.54 127.65 58.4C129.69 60.26 129.84 63.42 127.98 65.46C86.57 110.93 64.13 134.7 61.3 136.12C60.58 136.48 59.82 136.65 59.07 136.65ZM48.77 100.6C46.94 100.6 45.17 99.59 44.29 97.84C43.15 95.56 43.92 92.83 45.98 91.45C49.05 88.83 71.16 64.83 84.54 50.14C86.4 48.1 89.56 47.95 91.6 49.81C93.65 51.67 93.79 54.83 91.93 56.88C53.91 98.62 52.02 99.57 51 100.07C50.28 100.43 49.52 100.6 48.77 100.6ZM98.54 143.51C96.71 143.51 94.95 142.5 94.07 140.75C92.93 138.47 93.69 135.74 95.75 134.36C98.82 131.74 120.93 107.74 134.31 93.05C136.17 91.01 139.33 90.86 141.38 92.72C143.42 94.58 143.56 97.74 141.7 99.78C103.69 141.52 101.79 142.47 100.78 142.98C100.06 143.34 99.29 143.51 98.54 143.51ZM313.08 136.65C311.25 136.65 309.48 135.63 308.61 133.88C307.44 131.55 308.26 128.75 310.43 127.4C314.79 123.91 352 83.54 374.6 58.73C376.46 56.68 379.62 56.54 381.66 58.4C383.71 60.26 383.85 63.42 381.99 65.46C340.58 110.93 318.14 134.7 315.31 136.12C314.6 136.48 313.83 136.65 313.08 136.65ZM302.78 100.6C300.95 100.6 299.18 99.59 298.31 97.84C297.17 95.56 297.93 92.83 299.99 91.45C303.06 88.83 325.18 64.83 338.55 50.14C340.42 48.1 343.58 47.95 345.62 49.81C347.66 51.67 347.81 54.83 345.95 56.88C307.93 98.62 306.03 99.57 305.02 100.07C304.3 100.43 303.54 100.6 302.78 100.6ZM352.56 143.51C350.72 143.51 348.96 142.5 348.08 140.75C346.94 138.47 347.7 135.74 349.76 134.36C352.83 131.74 374.95 107.74 388.33 93.05C390.19 91.01 393.35 90.86 395.39 92.72C397.43 94.58 397.58 97.74 395.72 99.78C357.7 141.52 355.81 142.47 354.79 142.98C354.07 143.34 353.31 143.51 352.56 143.51Z" />
	</g>
</svg>