<svg xmlns="http://www.w3.org/2000/svg" viewBox="0 0 505 335" width="505" height="335">
	<defs>
		<clipPath clipPathUnits="userSpaceOnUse" id="cp1">
			<path d="M0 0L505 0L505 335L0 335Z" />
		</clipPath>
	</defs>
	<style>
		tspan { white-space:pre }
		.shp0 { fill: #ffffff } 
	</style>
	<g id="Page 1" clip-path="url(#cp1)">
		<path id="Path 1" class="shp0" d="M120.9 298.06C88.07 298.06 57.16 277.83 45.22 245.26C29.94 203.58 51.42 157.23 93.1 141.95C105.77 137.3 119.48 135.91 132.75 137.9C135.48 138.32 137.36 140.86 136.95 143.59C136.54 146.32 134 148.2 131.26 147.79C119.65 146.04 107.64 147.27 96.54 151.34C60.04 164.72 41.23 205.31 54.61 241.81C68 278.32 108.58 297.13 145.09 283.75C181.59 270.36 200.4 229.77 187.02 193.27C184.35 185.99 180.55 179.27 175.73 173.28C174 171.13 174.34 167.98 176.49 166.25C178.64 164.52 181.79 164.86 183.52 167.01C189.02 173.84 193.36 181.52 196.41 189.83C211.69 231.51 190.21 277.85 148.53 293.14C139.42 296.48 130.08 298.06 120.9 298.06ZM166.69 162.56C165.63 162.56 164.57 162.22 163.66 161.53C159.45 158.32 154.87 155.57 150.04 153.37C147.52 152.22 146.41 149.26 147.56 146.75C148.7 144.23 151.66 143.12 154.18 144.27C159.69 146.78 164.93 149.91 169.73 153.58C171.93 155.26 172.35 158.4 170.67 160.59C169.69 161.88 168.2 162.56 166.69 162.56ZM388.36 199.98C376.83 199.98 365.33 197.47 354.56 192.48C335.04 183.43 320.22 167.33 312.82 147.14C305.41 126.95 306.32 105.08 315.36 85.57C324.4 66.06 340.5 51.24 360.69 43.83C373.36 39.19 387.08 37.79 400.35 39.79C403.08 40.2 404.96 42.75 404.55 45.48C404.13 48.21 401.61 50.09 398.86 49.68C387.24 47.92 375.24 49.15 364.13 53.22C346.45 59.71 332.35 72.69 324.43 89.78C316.51 106.87 315.72 126.02 322.21 143.7C328.69 161.38 341.67 175.48 358.76 183.4C375.85 191.32 394.99 192.11 412.68 185.63C449.19 172.25 467.99 131.66 454.61 95.15C451.94 87.87 448.14 81.15 443.32 75.17C441.59 73.02 441.93 69.87 444.08 68.14C446.24 66.4 449.38 66.74 451.11 68.89C456.62 75.72 460.95 83.4 464 91.71C479.28 133.39 457.81 179.74 416.12 195.02C407.09 198.33 397.71 199.98 388.36 199.98ZM434.29 64.44C433.23 64.44 432.16 64.11 431.25 63.41C427.06 60.2 422.47 57.46 417.63 55.25C415.12 54.11 414.01 51.14 415.15 48.63C416.3 46.12 419.25 45 421.78 46.15C427.3 48.67 432.53 51.8 437.33 55.47C439.52 57.14 439.94 60.28 438.26 62.48C437.28 63.76 435.79 64.44 434.29 64.44ZM118.4 257.33C116.36 257.33 114.45 256.07 113.71 254.05L90.64 191.14C89.69 188.55 91.02 185.68 93.61 184.73C96.21 183.78 99.08 185.11 100.03 187.7L121.37 245.91L157.05 232.83C159.64 231.88 162.52 233.21 163.47 235.8C164.42 238.39 163.09 241.27 160.49 242.22L120.12 257.02C119.55 257.23 118.97 257.33 118.4 257.33ZM382.32 163.75C380.28 163.75 378.37 162.5 377.62 160.47L353.53 94.75C352.58 92.16 353.91 89.29 356.5 88.34C359.08 87.39 361.96 88.72 362.92 91.31L387.01 157.03C387.96 159.62 386.63 162.5 384.04 163.45C383.47 163.66 382.89 163.75 382.32 163.75ZM420.35 148.08C419.73 148.08 419.09 147.96 418.48 147.71L372.67 129.14C370.68 128.33 369.42 126.33 369.56 124.18C369.7 122.03 371.2 120.21 373.29 119.67C377.86 118.46 390.59 113.63 394.43 105.93C395.92 102.95 395.93 99.75 394.47 96.14C393.08 92.72 390.89 90.5 387.78 89.38C379.07 86.22 365.12 91.94 360.48 94.41C358.05 95.71 355.02 94.79 353.72 92.35C352.42 89.92 353.33 86.9 355.77 85.59C356.6 85.14 376.47 74.65 391.17 79.97C396.94 82.05 401.29 86.35 403.74 92.38C406.28 98.64 406.15 104.88 403.37 110.43C400.12 116.9 393.73 121.49 387.92 124.53L422.23 138.44C424.79 139.48 426.03 142.4 424.99 144.96C424.2 146.9 422.33 148.08 420.35 148.08Z" />
		<path id="Path 2" fill-rule="evenodd" class="shp0" d="M387.21 236.34C372.17 236.34 357.58 233.45 344.07 228.12C343.28 228.41 342.39 228.51 341.5 228.35C291.68 219.89 251.25 235.39 221.32 274.42C221.26 274.5 221.2 274.57 221.14 274.65C207.39 299.26 185.53 317.94 158.78 327.75C145.66 332.56 131.98 335 118.13 335C68.79 335 24.22 303.86 7.23 257.51C-15.19 196.37 16.31 128.38 77.46 105.96C90.58 101.15 104.26 98.71 118.11 98.71C132.83 98.71 147.12 101.48 160.39 106.6C161.1 106.53 161.84 106.61 162.55 106.86C205.36 121.93 256.35 104.09 281.16 65.37C281.46 64.91 281.81 64.51 282.22 64.18C295.3 38.72 317.6 17.91 346.53 7.3C359.65 2.49 373.33 0.05 387.18 0.05C436.52 0.05 481.09 31.19 498.09 77.54C520.51 138.68 489 206.67 427.85 229.09C414.73 233.9 401.06 236.34 387.21 236.34ZM276.3 158.86C268.09 136.47 267.11 113.17 272.17 91.53C251.06 111.09 222.59 122.16 194.1 122.16C192.19 122.16 190.29 122.11 188.38 122.01C206.55 135.46 220.91 154.1 229.02 176.19C237.57 199.53 238.57 224.38 232.12 247.88C256.88 225.47 286.77 214.87 321.39 216.19C301.12 202.57 285.05 182.73 276.3 158.86ZM387.18 10.05C374.51 10.05 361.99 12.29 349.97 16.69C294.01 37.21 265.17 99.44 285.69 155.41C301.24 197.84 342.04 226.34 387.21 226.34C399.88 226.34 412.4 224.11 424.41 219.7C480.38 199.18 509.22 136.95 488.7 80.98C473.14 38.55 432.35 10.05 387.18 10.05ZM118.11 108.71C105.44 108.71 92.92 110.94 80.9 115.35C24.93 135.87 -3.91 198.1 16.61 254.07C32.17 296.5 72.97 325 118.13 325C130.81 325 143.32 322.77 155.34 318.36C182.45 308.42 204.07 288.51 216.21 262.31C228.36 236.11 229.57 206.75 219.63 179.64C204.07 137.21 163.28 108.71 118.11 108.71Z" />
	</g>
</svg>