<svg xmlns="http://www.w3.org/2000/svg" viewBox="0 0 443 262" width="443" height="262">
	<defs>
		<clipPath clipPathUnits="userSpaceOnUse" id="cp1">
			<path d="M0 0L443 0L443 262L0 262Z" />
		</clipPath>
	</defs>
	<style>
		tspan { white-space:pre }
		.shp0 { fill: #ffffff } 
	</style>
	<g id="Page 1" clip-path="url(#cp1)">
		<path id="Path 1" fill-rule="evenodd" class="shp0" d="M331.99 262C303.27 262 277.71 249.72 261.88 228.32C250.63 213.12 243.82 195.08 238.65 179.43C238.06 177.66 237.49 175.66 236.88 173.55C234.08 163.81 230.59 151.68 221.77 150.53C221.22 150.46 220.69 150.42 220.18 150.42C212.74 150.42 209.6 158.85 205.96 170.76C205.17 173.36 204.42 175.82 203.58 178.05C197.41 194.5 190.05 211.76 178.11 226.59C162.09 246.5 138.23 257.46 110.94 257.46C107.54 257.46 104.06 257.28 100.59 256.94C20.12 249.03 18.37 160.76 18.69 145.38C15.85 142.47 12.75 139.45 11.32 138.3C6.25 137.38 2.46 131.85 0.78 122.83C-1.36 111.4 0.66 98.24 9.98 94.64C10.9 94.26 11.83 93.88 12.77 93.52C20.82 87.43 29.57 82.19 38.08 77.1C40.37 75.73 42.64 74.37 44.89 73C64.36 61.13 84.1 49.64 102.53 38.98C105.6 37.21 110.55 34.29 116.39 30.83C163.71 2.88 169.6 0.07 172.5 -0.02C177.57 -0.17 179.65 2.08 180.47 4C182.42 8.59 178.21 12.71 175.7 15.18C167.87 22.86 159.78 30.14 152.21 36.86C136.84 50.51 120.56 64.49 102.69 79.37C134.34 80.36 167.24 86.9 196.24 98.03C203.47 100.8 210.5 101.28 218.63 101.83L219.16 101.87C220.99 101.99 222.88 102.06 224.78 102.06C239.57 102.06 254.75 98.18 269.43 94.44C278.89 92.02 288.69 89.52 298.45 88.02C314.42 85.55 330.01 84.3 344.78 84.28C324.6 67.57 306.42 52.02 289.35 36.86C281.78 30.14 273.7 22.86 265.86 15.18C263.35 12.71 259.15 8.58 261.1 4C261.91 2.08 263.97 -0.17 269.07 -0.02C271.97 0.07 277.85 2.88 325.17 30.83C331.02 34.29 335.96 37.21 339.03 38.98C357.44 49.62 377.16 61.11 396.68 73C398.93 74.37 401.2 75.73 403.49 77.1C413.82 83.28 424.5 89.67 433.85 97.54C435.53 98.96 436.05 101.25 435.29 103.2C443.87 108.66 444.31 123.92 442.33 133.38C439.84 145.29 434.36 147.07 431.31 147.07L431.3 147.07C430.83 147.07 430.35 147.03 429.86 146.93C429.69 146.9 429.53 146.89 429.38 146.89C427.28 146.89 425.28 150.51 424.51 152.43C424.45 163.17 421.49 257.08 338.09 261.83C336.05 261.94 333.99 262 331.99 262ZM398.02 90.15C402.69 91.25 407.31 92.52 411.84 93.94C407.39 91.09 402.84 88.36 398.35 85.68C396.04 84.3 393.75 82.92 391.48 81.54C372.05 69.7 352.38 58.25 334.03 47.64C330.94 45.85 325.97 42.92 320.09 39.45C310.71 33.9 295.2 24.74 283.44 18.07C287.69 21.98 291.92 25.77 295.99 29.39C314.21 45.57 333.71 62.2 355.59 80.24C356.92 81.33 357.54 82.98 357.39 84.58C371.54 85.26 385.17 87.13 398.02 90.15ZM220.18 140.42C221.12 140.42 222.09 140.49 223.07 140.61C238.39 142.61 243.27 159.57 246.49 170.79C247.06 172.76 247.6 174.63 248.15 176.29C253.32 191.93 259.54 208.34 269.92 222.37C285.05 242.82 309.34 253.45 337.52 251.84C370.3 249.98 393.2 232.74 405.56 200.61C415 176.1 414.51 151.93 414.51 151.69C414.49 151.14 414.57 150.59 414.74 150.06C416.29 145.17 421.12 136.89 429.38 136.89C429.77 136.89 430.17 136.91 430.57 136.94C432.19 134.64 434.09 126.57 432.96 118.94C432.39 115.04 431.03 112.08 429.51 111.42C418.84 106.52 407.5 102.65 395.73 99.89C379.93 96.17 362.88 94.28 345.04 94.28C330.7 94.28 315.54 95.5 299.97 97.9C290.69 99.33 281.14 101.77 271.9 104.13C256.62 108.02 240.82 112.05 224.78 112.06C222.65 112.06 220.53 111.98 218.47 111.84L217.95 111.81C209.39 111.23 201.3 110.68 192.66 107.36C162.2 95.68 127.27 89.24 94.3 89.24C66.2 89.24 40.46 93.64 17.71 102.33C16.5 103.26 15.31 104.22 14.15 105.2C13.38 105.85 12.46 106.22 11.52 106.33C10.92 107.6 10.47 109.28 10.23 111.23C9.29 118.88 11.68 126.74 13.42 128.46C15.23 128.55 17.46 129.56 27.38 140C28.34 141.01 28.83 142.38 28.74 143.77C28.73 144.01 27.27 168.39 35.77 193.27C46.84 225.71 68.98 243.79 101.57 246.99C104.72 247.3 107.87 247.46 110.94 247.46C135.14 247.46 156.23 237.82 170.32 220.32C181.37 206.59 188.34 190.2 194.22 174.53C194.95 172.6 195.65 170.29 196.4 167.84C199.93 156.27 204.76 140.42 220.18 140.42ZM391.11 187.44C390.66 187.44 390.2 187.38 389.74 187.25C387.09 186.5 385.54 183.73 386.3 181.08C388.06 174.87 389.41 167.87 390.32 160.27C391.2 153.01 390.78 139.02 385.94 132.37C380.01 124.23 366.54 122.12 356.48 121.31C356.12 121.37 355.75 121.39 355.39 121.36C353.87 121.25 352.31 121.34 350.67 121.43C349.23 121.51 347.74 121.59 346.24 121.53C345.09 121.47 343.79 121.63 342.43 121.8C341.06 121.98 339.51 122.18 337.88 122.18L332.78 122.18C331.74 122.18 330.77 121.86 329.97 121.31C319.91 121.77 309.96 122.97 300.31 124.9C298.97 125.17 297.45 125.43 295.81 125.71C292.08 126.35 287.86 127.07 283.91 128.24C274.63 130.85 273.58 132.81 272.82 134.24C272.69 134.49 272.56 134.73 272.43 134.96C268.68 141.56 268.3 150.42 271.21 162.84C272.41 167.94 273.97 173 275.48 177.9L275.4 177.92C275.44 178.03 275.48 178.14 275.51 178.25L276.06 179.96C276.45 181.17 276.82 182.34 277.18 183.53L278.06 186.37C279.32 190.33 281.01 194.26 283.06 197.97C283.69 199.11 284.4 200.21 285 201.14C288.44 206.48 292.59 211.03 297.37 214.68C304.62 220.23 313.19 223.78 322.82 225.24C339.1 227.71 355.48 223.17 367.75 212.8C369.85 211.01 373.01 211.28 374.79 213.39C376.58 215.49 376.31 218.65 374.21 220.43C362.32 230.49 347.18 235.9 331.55 235.9C328.15 235.9 324.74 235.65 321.33 235.13C310.01 233.41 299.9 229.21 291.3 222.62C285.6 218.27 280.66 212.87 276.6 206.57C275.92 205.52 275.1 204.23 274.32 202.82C271.94 198.53 269.99 193.99 268.5 189.32L267.61 186.42C267.27 185.29 266.91 184.17 266.54 183.02L265.98 181.27C265.89 180.98 265.83 180.68 265.79 180.39C264.24 175.39 262.7 170.35 261.48 165.12C259.26 155.67 257.08 141.75 263.73 130.02L263.99 129.55C266 125.77 268.82 122.09 281.14 118.63C285.59 117.31 290.33 116.5 294.13 115.85C295.66 115.59 297.09 115.35 298.35 115.1C311.16 112.53 324.45 111.19 337.85 111.11C338.89 111.15 339.85 111.41 340.65 111.95C340.82 111.93 340.99 111.91 341.17 111.88C342.83 111.67 344.7 111.43 346.7 111.54C347.67 111.57 348.86 111.51 350.12 111.44C351.61 111.36 353.28 111.27 355.03 111.33C355.42 111.25 355.83 111.22 356.23 111.26C369.38 112.23 385.55 114.84 394.02 126.48C401.1 136.19 401.26 153.04 400.24 161.46C399.28 169.57 397.82 177.09 395.92 183.8C395.3 186.01 393.29 187.44 391.11 187.44ZM111.12 234.12C95.18 234.12 79.81 228.5 67.81 218.07C54.19 206.2 45.66 186.56 42.45 159.67C41.43 151.26 41.59 134.41 48.67 124.7C57.14 113.06 73.32 110.45 86.46 109.47C86.89 109.44 87.32 109.47 87.74 109.54C89.44 109.48 91.08 109.54 92.55 109.59C93.81 109.64 95.01 109.69 96.04 109.64C97.96 109.55 99.83 109.75 101.48 109.93C101.7 109.95 101.92 109.97 102.14 110C102.92 109.5 103.87 109.22 104.84 109.22C118.07 109.3 131.36 110.66 144.34 113.26C145.58 113.51 146.97 113.75 148.48 114.01C152.31 114.67 157.07 115.49 161.62 116.84C173.87 120.28 176.69 123.97 178.7 127.76L178.96 128.23C185.61 139.95 183.43 153.88 181.22 163.33C179.98 168.6 178.42 173.68 176.9 178.6C176.87 178.9 176.8 179.19 176.71 179.49L176.12 181.33C175.76 182.45 175.41 183.53 175.08 184.64L174.21 187.47C173.32 190.28 172.27 193 171.09 195.62C170.26 197.47 168.44 198.56 166.53 198.56C165.84 198.56 165.15 198.42 164.48 198.12C161.96 196.98 160.84 194.02 161.98 191.5C163 189.24 163.9 186.88 164.66 184.51L165.51 181.76C165.86 180.59 166.22 179.45 166.6 178.27L166.98 177.07C167.02 176.8 167.08 176.52 167.16 176.25C168.71 171.25 170.28 166.17 171.48 161.05C174.4 148.63 174.01 139.76 170.26 133.16C170.13 132.93 170 132.69 169.87 132.44C169.11 131.01 168.06 129.04 158.85 126.45C154.79 125.25 150.53 124.51 146.78 123.87C145.18 123.59 143.69 123.33 142.38 123.07C132.56 121.1 122.57 119.88 112.56 119.42C111.79 119.9 110.88 120.18 109.91 120.18L104.81 120.18C103.25 120.18 101.8 120.02 100.41 119.87C99 119.72 97.67 119.57 96.5 119.63C95.02 119.69 93.57 119.64 92.18 119.59C90.56 119.53 88.89 119.47 87.31 119.58C86.91 119.61 86.52 119.59 86.15 119.53C76.1 120.34 62.67 122.46 56.76 130.58C51.91 137.23 51.5 151.22 52.37 158.48C55.28 182.84 62.68 200.34 74.37 210.52C86.71 221.25 103.3 225.97 119.87 223.46C129.03 222.07 137.24 218.78 144.27 213.68C146.5 212.07 149.63 212.56 151.25 214.8C152.87 217.03 152.38 220.16 150.14 221.78C141.81 227.83 132.12 231.72 121.36 233.35C117.94 233.87 114.51 234.12 111.12 234.12ZM145.57 29.39C149.65 25.76 153.88 21.98 158.12 18.07C146.37 24.74 130.86 33.9 121.48 39.44C115.6 42.92 110.63 45.85 107.53 47.64C89.16 58.26 69.48 69.72 50.09 81.54C48.87 82.28 47.65 83.02 46.42 83.76C59.33 81.19 72.9 79.71 87.07 79.34C108.53 61.63 127.68 45.28 145.57 29.39Z" />
	</g>
</svg>